<?xml version="1.0" encoding="UTF-8" standalone="no"?>
<!-- Created with Inkscape (http://www.inkscape.org/) -->

<svg
   width="102.16514mm"
   height="73.55777mm"
   viewBox="0 0 102.16514 73.55777"
   version="1.1"
   id="svg1"
   inkscape:version="1.3.2 (091e20e, 2023-11-25, custom)"
   sodipodi:docname="ga.svg"
   xmlns:inkscape="http://www.inkscape.org/namespaces/inkscape"
   xmlns:sodipodi="http://sodipodi.sourceforge.net/DTD/sodipodi-0.dtd"
   xmlns="http://www.w3.org/2000/svg"
   xmlns:svg="http://www.w3.org/2000/svg">
  <sodipodi:namedview
     id="namedview1"
     pagecolor="#ffffff"
     bordercolor="#000000"
     borderopacity="0.25"
     inkscape:showpageshadow="2"
     inkscape:pageopacity="0.0"
     inkscape:pagecheckerboard="0"
     inkscape:deskcolor="#d1d1d1"
     inkscape:document-units="mm"
     inkscape:zoom="0.67081229"
     inkscape:cx="397.27954"
     inkscape:cy="561.25984"
     inkscape:window-width="1920"
     inkscape:window-height="1000"
     inkscape:window-x="-9"
     inkscape:window-y="-9"
     inkscape:window-maximized="1"
     inkscape:current-layer="layer1" />
  <defs
     id="defs1" />
  <g
     inkscape:label="Layer 1"
     inkscape:groupmode="layer"
     id="layer1"
     transform="translate(-51.949849,-57.192156)">
    <g
       id="text10-1"
       transform="translate(225.09489,15.997066)">
      <path
         d="m -167.95029,62.320983 c 0.21346,1.356235 0.61394,2.814708 1.43365,3.86123 0.84626,1.080408 1.76773,2.249795 2.93113,3.043905 2.3871,1.629395 5.03427,3.278397 8.00754,3.325364 14.5319,0.229554 36.07756,-8.44743 28.10991,0.853872 -1.25587,1.46608 -2.13694,2.252581 -2.72583,3.653161 -0.56303,1.339073 -1.06573,2.470072 -1.23207,3.857315 -0.13646,1.13812 -0.30014,2.529492 -0.31015,4.029572 -0.01,1.431005 0.0968,2.050874 0.39768,3.020952 0.17302,0.557799 0.33719,1.040532 0.79448,1.56156 2.0166,2.297697 2.14168,0.185676 2.14168,0.185676 0,0 -0.80322,-2.912751 -0.92346,-4.591982 -0.0816,-1.139768 -0.006,-2.06336 0.33727,-3.014627 0.35715,-0.991123 0.81072,-1.929259 1.7329,-2.643109 0.45155,-0.34954 1.25064,-0.755192 2.876,-0.710044 4.35549,0.120982 8.52784,2.349333 12.35122,4.279236 4.86104,2.453676 11.61223,6.55271 14.072832,6.104877 1.74703,-0.317944 3.13123,-1.051937 4.152623,-2.201996 1.021113,-1.12649 -3.770017,1.402169 -3.770017,1.402169 5.724223,-9.767831 6.200144,-11.828937 -8.173688,-4.303657 22.225375,-43.478126 45.601127,-41.863514 21.271429,-14.529194 29.911067,8.586977 0.774481,7.925822 0.714112,12.569567 -0.0619,4.76161 -1.499219,8.632976 -4.311782,11.614085 -2.788034,2.976625 8.438463,18.971655 4.575341,19.674685 -2.805067,0.51049 -19.8813,-13.973164 -22.1245,-15.140544 -2.24321,-1.167381 -4.53738,18.265194 -5.55958,15.699784 -1.23419,2.41165 -2.15619,-16.988261 -4.08892,-15.601804 -1.93275,1.386454 -19.81987,16.028324 -21.91135,16.408954 -3.98617,0.72542 10.93277,-16.03291 7.62161,-18.134694 -2.52638,-1.599964 -3.23642,-2.831045 -3.72842,-3.56849 -0.59091,-0.885711 -0.88475,-2.418095 -1.27741,-5.867664 -0.24422,-2.145453 -0.27447,-3.190837 -0.0415,-4.760556 0.17019,-1.146733 0.22028,-2.016942 0.47835,-2.994146 0.26936,-1.01996 0.51865,-1.844185 1.10884,-2.964176 0.32392,-0.614687 1.10761,-1.854567 1.73141,-2.73494 0.49065,-0.692446 1.1847,-1.503137 1.57806,-1.997913 0,-2.579005 -25.13759,9.058107 -34.73058,2.991961 -7.36317,-4.656109 -10.6929,-12.095022 -7.48047,-17.660803 1.89351,-3.280653 4.70045,-6.350914 9.39703,-5.442726 46.23486,8.940542 39.54306,-20.61621 43.09986,-6.527787 2.45788,9.735611 -22.37654,14.649134 -36.83585,12.42034 -5.757,-0.887398 -6.80228,-1.843332 -9.67938,-0.377654 -1.01931,0.519269 -1.69435,2.198694 -1.90786,2.852691 -0.18418,0.564163 -0.22443,1.580528 -0.10214,2.35755 z"
         style="color:#000000;-inkscape-font-specification:'Arial Bold Italic';fill:#000000;fill-opacity:0.995717;-inkscape-stroke:none"
         id="path1-4"
         sodipodi:nodetypes="asasssssascsassssccccscsscsscsssasacsssssasa" />
      <path
         id="path11-4"
         style="fill:#ffffff;stroke-width:0.264583"
         d="m -85.834057,64.822914 a 1.5,1.5 0 0 1 -1.5,1.5 1.5,1.5 0 0 1 -1.5,-1.5 1.5,1.5 0 0 1 1.5,-1.5 1.5,1.5 0 0 1 1.5,1.5 z" />
    </g>
  </g>
</svg>
